<svg width="40" height="32" viewBox="0 0 40 32" fill="none" xmlns="http://www.w3.org/2000/svg">
<g clip-path="url(#clip0_127_314)">
<path d="M36 32V4.22751L40 3V32H36Z" fill="white"/>
<path d="M1.6 0C0.716344 0 0 0.89543 0 2V16.3002C0 16.4478 0.0612331 16.5892 0.170015 16.6929L10.9856 27L9.6 32H16V22.4094C16 22.1388 15.9484 21.8705 15.8479 21.6178L10.9641 9.34573C10.578 8.30973 9.58339 7.87564 8.76562 8.38674C7.99728 8.86731 7.66189 10.0128 8 11L10.9641 18.3974L3.2 13V2C3.2 0.89543 2.48366 0 1.6 0Z" fill="white"/>
</g>
<defs>
<clipPath id="clip0_127_314">
<rect width="40" height="32" fill="white"/>
</clipPath>
</defs>
</svg>
