<svg width="48" height="32" viewBox="0 0 48 32" fill="none" xmlns="http://www.w3.org/2000/svg">
<g clip-path="url(#clip0_134_420)">
<path d="M29 32L38.386 20.004C38.8927 19.3311 39.4627 18.5158 40.096 17.5582C40.7547 16.5747 41.3247 15.5654 41.806 14.5301C42.3127 13.469 42.566 12.4855 42.566 11.5797C42.566 10.1562 42.186 9.05623 41.426 8.27979C40.6913 7.50335 39.5767 7.11513 38.082 7.11513C37.0433 7.11513 36.1693 7.34806 35.46 7.81392C34.7507 8.27979 34.168 8.82329 33.712 9.44445C33.2813 10.0656 32.9393 10.622 32.686 11.1138L29.152 9.17269C29.6333 8.24097 30.254 7.30924 31.014 6.37751C31.7993 5.4199 32.7747 4.61758 33.94 3.97055C35.1053 3.32352 36.524 3 38.196 3C40.1213 3 41.73 3.3494 43.022 4.04819C44.314 4.74699 45.2767 5.7046 45.91 6.92102C46.5687 8.13744 46.898 9.52209 46.898 11.075C46.898 12.7314 46.4927 14.4266 45.682 16.1606C44.8967 17.8947 43.782 19.6676 42.338 21.4792L37.17 28.1566H48V32H29Z" fill="#82C938"/>
<path d="M1.6 0C0.716344 0 0 0.89543 0 2V16.3002C0 16.4478 0.0612331 16.5892 0.170015 16.6929L10.9856 27L9.6 32H16V22.4094C16 22.1388 15.9484 21.8705 15.8479 21.6178L10.9641 9.34573C10.578 8.30973 9.58339 7.87564 8.76562 8.38674C7.99728 8.86731 7.66189 10.0128 8 11L10.9641 18.3974L3.2 13V2C3.2 0.89543 2.48366 0 1.6 0Z" fill="#DCA192"/>
</g>
<defs>
<clipPath id="clip0_134_420">
<rect width="48" height="32" fill="white"/>
</clipPath>
</defs>
</svg>
