<svg width="48" height="32" viewBox="0 0 48 32" fill="none" xmlns="http://www.w3.org/2000/svg">
<g clip-path="url(#clip0_134_423)">
<path d="M37.2706 32C36.2523 32 35.1967 31.884 34.1039 31.652C33.0111 31.4458 32.0052 31.1493 31.0863 30.7627C30.1922 30.376 29.4967 29.9378 29 29.448L30.751 25.7747C31.3967 26.2902 32.2909 26.8058 33.4333 27.3213C34.5758 27.8111 35.7928 28.056 37.0843 28.056C38.1771 28.056 39.2078 27.9142 40.1765 27.6307C41.1451 27.3213 41.9275 26.78 42.5235 26.0067C43.1444 25.2076 43.4549 24.0991 43.4549 22.6813C43.4549 21.1604 42.8712 19.936 41.7039 19.008C40.5614 18.08 39.0091 17.616 37.0471 17.616C36.451 17.616 35.8425 17.6418 35.2216 17.6933C34.6007 17.7191 34.0542 17.7707 33.5824 17.848L40.4373 6.78933H30.1549V3H47.851L40.102 14.484C41.7163 14.5356 43.1072 14.9222 44.2745 15.644C45.4667 16.3658 46.3856 17.3196 47.0314 18.5053C47.6771 19.6653 48 20.9542 48 22.372C48 24.2022 47.5778 25.852 46.7333 27.3213C45.9137 28.7649 44.6967 29.912 43.0824 30.7627C41.4928 31.5876 39.5556 32 37.2706 32Z" fill="#7CC533"/>
<path d="M1.6 0C0.716344 0 0 0.89543 0 2V16.3002C0 16.4478 0.0612331 16.5892 0.170015 16.6929L10.9856 27L9.6 32H16V22.4094C16 22.1388 15.9484 21.8705 15.8479 21.6178L10.9641 9.34573C10.578 8.30973 9.58339 7.87564 8.76562 8.38674C7.99728 8.86731 7.66189 10.0128 8 11L10.9641 18.3974L3.2 13V2C3.2 0.89543 2.48366 0 1.6 0Z" fill="#DCA192"/>
</g>
<defs>
<clipPath id="clip0_134_423">
<rect width="48" height="32" fill="white"/>
</clipPath>
</defs>
</svg>
