<svg width="48" height="32" viewBox="0 0 48 32" fill="none" xmlns="http://www.w3.org/2000/svg">
<g clip-path="url(#clip0_127_326)">
<path d="M37.9959 32C36.3595 32 34.8471 31.7809 33.4587 31.3427C32.095 30.9044 30.9421 30.26 30 29.4093L31.8967 25.7747C32.1198 25.9551 32.5041 26.2258 33.0496 26.5867C33.6198 26.9218 34.3141 27.2311 35.1322 27.5147C35.9752 27.7982 36.8926 27.94 37.8843 27.94C39.5455 27.94 40.9215 27.4502 42.0124 26.4707C43.1033 25.4911 43.6488 24.1378 43.6488 22.4107C43.6488 21.4569 43.4504 20.5676 43.0537 19.7427C42.6818 18.892 42.0372 18.2089 41.1198 17.6933C40.2273 17.152 39 16.8813 37.438 16.8813C36.6942 16.8813 35.9132 16.9329 35.095 17.036C34.3017 17.1133 33.5702 17.2293 32.9008 17.384C32.2314 17.5387 31.7231 17.7191 31.376 17.9253L31.9339 3H45.9545V6.78933H35.9876L35.6157 13.5173C35.9628 13.4142 36.3843 13.3369 36.8802 13.2853C37.4008 13.2338 38.0207 13.208 38.7397 13.208C41.6157 13.208 43.8719 13.9942 45.5083 15.5667C47.1694 17.1133 48 19.2529 48 21.9853C48 23.9444 47.6033 25.6844 46.8099 27.2053C46.0413 28.7004 44.9132 29.8733 43.4256 30.724C41.938 31.5747 40.1281 32 37.9959 32Z" fill="white"/>
<path d="M14.4 0C15.2837 0 16 0.89543 16 2V16.3002C16 16.4478 15.9388 16.5892 15.83 16.6929L5.01436 27L6.4 32H-4.18113e-07V22.4094C-4.18113e-07 22.1388 0.0515537 21.8705 0.152086 21.6178L5.03594 9.34573C5.42196 8.30973 6.41661 7.87564 7.23438 8.38674C8.00272 8.86731 8.33811 10.0128 8 11L5.03594 18.3974L12.8 13V2C12.8 0.89543 13.5163 0 14.4 0Z" fill="white"/>
</g>
<defs>
<clipPath id="clip0_127_326">
<rect width="48" height="32" fill="white"/>
</clipPath>
</defs>
</svg>
