<svg width="48" height="32" viewBox="0 0 48 32" fill="none" xmlns="http://www.w3.org/2000/svg">
<g clip-path="url(#clip0_127_329)">
<path d="M38.7857 32C37.1667 32 35.6905 31.6383 34.3571 30.9148C33.0238 30.1665 31.9643 29.1187 31.1786 27.7716C30.3929 26.3996 30 24.7656 30 22.8697C30 22.1462 30.0476 21.4353 30.1429 20.7368C30.2619 20.0383 30.4881 19.24 30.8214 18.3419C31.1548 17.4439 31.6429 16.3338 32.2857 15.0116C32.9524 13.6645 33.8214 12.0305 34.8929 10.1097C35.9643 8.16387 37.3095 5.79398 38.9286 3L42.3571 5.09548C41.0714 7.14108 40.0476 8.8 39.2857 10.0723C38.5238 11.3445 37.9405 12.3424 37.5357 13.0658C37.1548 13.7643 36.881 14.2757 36.7143 14.6C36.5476 14.9243 36.4048 15.1488 36.2857 15.2736C36.6429 14.9243 37.131 14.6374 37.75 14.4129C38.3929 14.1634 39.1548 14.0387 40.0357 14.0387C41.6786 14.0387 43.0952 14.4379 44.2857 15.2361C45.4762 16.0344 46.3929 17.0946 47.0357 18.4168C47.6786 19.714 48 21.111 48 22.6077C48 24.6034 47.6071 26.2998 46.8214 27.6968C46.0357 29.0938 44.9405 30.1665 43.5357 30.9148C42.1548 31.6383 40.5714 32 38.7857 32ZM39.0357 28.3329C40.5595 28.3329 41.75 27.834 42.6071 26.8361C43.4643 25.8133 43.8929 24.5286 43.8929 22.9819C43.8929 21.2856 43.4286 19.9759 42.5 19.0529C41.5952 18.1049 40.4762 17.631 39.1429 17.631C37.619 17.631 36.3929 18.1174 35.4643 19.0903C34.5595 20.0383 34.1071 21.3604 34.1071 23.0568C34.1071 24.5785 34.5714 25.8383 35.5 26.8361C36.4524 27.834 37.631 28.3329 39.0357 28.3329Z" fill="white"/>
<path d="M14.4 0C15.2837 0 16 0.89543 16 2V16.3002C16 16.4478 15.9388 16.5892 15.83 16.6929L5.01436 27L6.4 32H-4.18113e-07V22.4094C-4.18113e-07 22.1388 0.0515537 21.8705 0.152086 21.6178L5.03594 9.34573C5.42196 8.30973 6.41661 7.87564 7.23438 8.38674C8.00272 8.86731 8.33811 10.0128 8 11L5.03594 18.3974L12.8 13V2C12.8 0.89543 13.5163 0 14.4 0Z" fill="white"/>
</g>
<defs>
<clipPath id="clip0_127_329">
<rect width="48" height="32" fill="white"/>
</clipPath>
</defs>
</svg>
