<svg width="48" height="32" viewBox="0 0 48 32" fill="none" xmlns="http://www.w3.org/2000/svg">
<g clip-path="url(#clip0_127_332)">
<path d="M34.4141 32L43.0373 6.86667H31V3H48L38.9193 32H34.4141Z" fill="white"/>
<path d="M14.4 0C15.2837 0 16 0.89543 16 2V16.3002C16 16.4478 15.9388 16.5892 15.83 16.6929L5.01436 27L6.4 32H-4.18113e-07V22.4094C-4.18113e-07 22.1388 0.0515537 21.8705 0.152086 21.6178L5.03594 9.34573C5.42196 8.30973 6.41661 7.87564 7.23438 8.38674C8.00272 8.86731 8.33811 10.0128 8 11L5.03594 18.3974L12.8 13V2C12.8 0.89543 13.5163 0 14.4 0Z" fill="white"/>
</g>
<defs>
<clipPath id="clip0_127_332">
<rect width="48" height="32" fill="white"/>
</clipPath>
</defs>
</svg>
