<svg xmlns="http://www.w3.org/2000/svg" shape-rendering="geometricPrecision" text-rendering="geometricPrecision" image-rendering="optimizeQuality" fill-rule="evenodd" clip-rule="evenodd" viewBox="0 0 477 512.55"><path fill="#F10100" fill-rule="nonzero" d="M366.76 187.49c-24.98 25.3-46.02 46.99-64.72 66.8 41.13 47.31 82.57 91.21 159.57 160.49 10.58 9.52 16.34 18.15 15.26 26.89-1.12 9.04-8.97 16.03-25.51 21.42l-.54.14c-105.31 34.11-91.92 13.16-158.66-68.87-21.91-24.69-40.46-46.2-57.13-65.72-37.96 44.38-74.46 91.19-133.98 166.84-8.81 11.19-17.04 17.5-25.83 17.01-9.1-.52-16.59-7.89-23.06-24.05l-.18-.52c-40.96-102.84-19.2-90.84 58.26-162.86 24.98-25.3 46.02-46.99 64.72-66.8-41.13-47.31-82.57-91.2-159.57-160.49C4.81 88.25-.95 79.62.13 70.88c1.12-9.04 8.97-16.03 25.51-21.42l.54-.14c105.31-34.11 91.92-13.16 158.66 68.87 21.9 24.69 40.46 46.2 57.13 65.72 37.96-44.38 74.46-91.19 133.98-166.84C384.76 5.88 392.99-.43 401.78.06c9.1.52 16.59 7.89 23.06 24.05l.18.52c40.96 102.84 19.2 90.84-58.26 162.86z"/></svg>