<svg width="32" height="32" viewBox="0 0 32 32" fill="none" xmlns="http://www.w3.org/2000/svg">
<path d="M31.4076 13.8225C21.3333 0.725732 10.6667 0.725929 0.592431 13.8225C-0.206363 14.8872 -0.19689 16.3483 0.617894 17.4012C10.5219 30.1996 21.4781 30.1996 31.3821 17.4012C32.1969 16.3483 32.2064 14.8872 31.4076 13.8225Z" fill="url(#paint0_linear_134_456)"/>
<path d="M25.305 15.4337C25.305 20.5071 21.1909 24.62 16.1159 24.62C11.0409 24.62 6.92676 20.5071 6.92676 15.4337C6.92676 10.3602 11.0409 6.24731 16.1159 6.24731C21.1909 6.24731 25.305 10.3602 25.305 15.4337Z" fill="url(#paint1_linear_134_456)"/>
<path d="M19.7916 15.4337C19.7916 17.463 18.1459 19.1082 16.1159 19.1082C14.0859 19.1082 12.4402 17.463 12.4402 15.4337C12.4402 13.4043 14.0859 11.7591 16.1159 11.7591C18.1459 11.7591 19.7916 13.4043 19.7916 15.4337Z" fill="black"/>
<path d="M21.6294 8.08279C22.8911 9.0302 23.901 10.2958 24.5405 11.7591L19.4829 13.9642C19.2269 13.3789 18.8229 12.8754 18.3181 12.4965L21.6294 8.08279Z" fill="#C3C3D6"/>
<defs>
<linearGradient id="paint0_linear_134_456" x1="15.285" y1="25.5621" x2="19.5253" y2="5.7644" gradientUnits="userSpaceOnUse">
<stop stop-color="#B0B0B0"/>
<stop offset="0.403846" stop-color="#DBDBDB"/>
<stop offset="0.610577" stop-color="#BEBEBE"/>
<stop offset="1" stop-color="#666666"/>
</linearGradient>
<linearGradient id="paint1_linear_134_456" x1="12.9433" y1="8.53785" x2="20.9415" y2="21.2461" gradientUnits="userSpaceOnUse">
<stop stop-color="#20212F"/>
<stop offset="0.5" stop-color="#8886AD"/>
<stop offset="1" stop-color="#4C4C6E"/>
</linearGradient>
</defs>
</svg>
