<svg xmlns="http://www.w3.org/2000/svg" viewBox="0 0 32 32" width="32" height="32">
  <g fill="white">
  <rect x="15" y="2" width="1" height="1" opacity="0.13"/>
  <rect x="15" y="3" width="2" height="1" opacity="0.50"/>
  <rect x="15" y="4" width="3" height="1" opacity="0.67"/>
  <rect x="15" y="5" width="3" height="1" opacity="0.87"/>
  <rect x="15" y="6" width="3" height="1" opacity="0.87"/>
  <rect x="15" y="7" width="3" height="1" opacity="0.87"/>
  <rect x="19" y="7" width="1" height="1" opacity="0.31"/>
  <rect x="15" y="8" width="3" height="1" opacity="0.87"/>
  <rect x="19" y="8" width="2" height="1" opacity="0.63"/>
  <rect x="15" y="9" width="3" height="1" opacity="0.87"/>
  <rect x="19" y="9" width="3" height="1" opacity="0.75"/>
  <rect x="15" y="10" width="3" height="1" opacity="0.87"/>
  <rect x="19" y="10" width="4" height="1" opacity="0.81"/>
  <rect x="15" y="11" width="3" height="1" opacity="0.87"/>
  <rect x="19" y="11" width="5" height="1" opacity="0.73"/>
  <rect x="15" y="12" width="3" height="1" opacity="0.87"/>
  <rect x="20" y="12" width="5" height="1" opacity="0.68"/>
  <rect x="15" y="13" width="3" height="1" opacity="0.87"/>
  <rect x="21" y="13" width="4" height="1" opacity="0.75"/>
  <rect x="15" y="14" width="3" height="1" opacity="0.87"/>
  <rect x="22" y="14" width="3" height="1" opacity="0.90"/>
  <rect x="15" y="15" width="3" height="1" opacity="0.87"/>
  <rect x="22" y="15" width="4" height="1" opacity="0.67"/>
  <rect x="15" y="16" width="3" height="1" opacity="0.87"/>
  <rect x="22" y="16" width="3" height="1" opacity="0.92"/>
  <rect x="15" y="17" width="3" height="1" opacity="0.87"/>
  <rect x="21" y="17" width="4" height="1" opacity="0.75"/>
  <rect x="10" y="18" width="4" height="1" opacity="0.24"/>
  <rect x="15" y="18" width="3" height="1" opacity="0.87"/>
  <rect x="21" y="18" width="4" height="1" opacity="0.70"/>
  <rect x="8" y="19" width="6" height="1" opacity="0.67"/>
  <rect x="15" y="19" width="3" height="1" opacity="0.87"/>
  <rect x="21" y="19" width="3" height="1" opacity="0.67"/>
  <rect x="8" y="20" width="6" height="1" opacity="0.86"/>
  <rect x="15" y="20" width="3" height="1" opacity="0.87"/>
  <rect x="21" y="20" width="2" height="1" opacity="0.41"/>
  <rect x="7" y="21" width="7" height="1" opacity="0.60"/>
  <rect x="15" y="21" width="3" height="1" opacity="0.87"/>
  <rect x="7" y="22" width="4" height="1" opacity="0.72"/>
  <rect x="15" y="22" width="3" height="1" opacity="0.87"/>
  <rect x="7" y="23" width="3" height="1" opacity="0.90"/>
  <rect x="15" y="23" width="3" height="1" opacity="0.87"/>
  <rect x="7" y="24" width="3" height="1" opacity="0.87"/>
  <rect x="14" y="24" width="4" height="1" opacity="0.69"/>
  <rect x="7" y="25" width="4" height="1" opacity="0.73"/>
  <rect x="14" y="25" width="4" height="1" opacity="0.72"/>
  <rect x="7" y="26" width="11" height="1" opacity="0.70"/>
  <rect x="8" y="27" width="9" height="1" opacity="0.90"/>
  <rect x="9" y="28" width="7" height="1" opacity="0.79"/>
  <rect x="10" y="29" width="4" height="1" opacity="0.22"/>
  </g>
</svg>