<?xml version="1.0" encoding="UTF-8"?>
<svg id="Layer_2" data-name="Layer 2" xmlns="http://www.w3.org/2000/svg" viewBox="0 0 102.94 137.79">
  <defs>
    <style>
      .cls-1 {
        fill: #7c7eb8;
      }
    </style>
  </defs>
  <g id="Layer_1-2" data-name="Layer 1">
    <path class="cls-1" d="M102.94,124.82c.1,1.53-.69,4.14-1.82,4.65s-3.87-.13-4.76-1.04l-4.97-5.11-28.56-21.54c-8.71-6.57-16.55-12.94-27.6-18.04-.96,17.12-.67,33.01-.41,50.09.05,3.33-5.08,4.33-7.85,3.85-9.1-1.58-16.35-2.16-25.86-2.34-.93-3.3-1.17-6.98-1.11-10.77L1.61,23.37l1.21-12.69c.38-3.94,1.01-6.98,2.64-10.68l27.25,8.1c1.61,4.86,1.07,9.38,1.18,14.53l.98,47.19c10.22-2.73,18.01-8.59,25.56-15.69,11.57-10.87,21.78-22.89,31.22-35.69.82-1.12,2.02-2.51,2.87-2.96,1.02-.54,3.08,1.91,3.14,3.25l1.66,34.5,1.16,18.36.93,30.19,1.53,23.04Z"/>
  </g>
</svg>