<?xml version="1.0" encoding="UTF-8"?>
<svg id="Layer_2" data-name="Layer 2" xmlns="http://www.w3.org/2000/svg" viewBox="0 0 132.25 111.18">
  <defs>
    <style>
      .cls-1 {
        fill: #7c7eb8;
      }

      .cls-2 {
        fill: #7e80b7;
      }
    </style>
  </defs>
  <g id="Layer_1-2" data-name="Layer 1">
    <g>
      <path class="cls-1" d="M67.67,66.11c-6.9-2.85-12.36-5.41-19.32-9.1l9.77-5.25c10.55-5.67,22.45-8.65,32.2-15.79l19.04-13.95c5.25-3.85,9.24-7.68,13.26-12.93,1.64-2.14,5.21-4.5,7.68-6.3-.53,8.86-.59,16.69,1.06,25.2,1.48,15.11.76,29.78.42,44.95l-.84,37.38c-9.09-8.14-17.47-13.96-26.21-20.83-11.64-9.15-22.82-17.51-37.06-23.39Z"/>
      <path class="cls-2" d="M95.04,111.18c-5.05-4.04-9.18-7.41-14.54-10.53l-18.91-11.02c-13.98-8.14-27.71-15.5-42.77-21.27l-9.39-3.6c-3.46-1.33-6.74-3.01-9.43-5.54,11.78-5.27,21.68-10.71,31.6-17.99,7.29-5.36,15.06-9.38,22.42-14.57l9.35-6.6c7.15-5.04,13.38-10.57,18.01-18.2.85-1.4,4.57-2.65,4.83-1.25l1.19,20.54c-12.93,8.76-26.12,16.11-39.21,24.69l-8.96,5.87c-2.89,1.89-4.92,3.32-7.64,6.58,18.56,11.36,35.88,16.77,53.63,29.74l10.84,7.93-1.01,15.21Z"/>
    </g>
  </g>
</svg>