<?xml version="1.0" encoding="UTF-8"?>
<svg id="Layer_2" data-name="Layer 2" xmlns="http://www.w3.org/2000/svg" viewBox="0 0 134.8 173.84">
  <defs>
    <style>
      .cls-1 {
        fill: #f6f5f8;
      }

      .cls-2 {
        fill: #7d7fb8;
      }
    </style>
  </defs>
  <g id="Layer_1-2" data-name="Layer 1">
    <g>
      <path class="cls-2" d="M25.23,163.13l-17.38,10.28c-2.45,1.45-5.59-.93-6.09-3.65l-1.77-9.72.86-15.1.27-15.98.6-27.01,3.06-56.94c.71-13.22,1.24-25.77.61-38.84-.11-2.34.1-4.3,1.19-6.15l17.24,12.78,35.82,25.09,35.05,24.99,40.1,28.5-9.5,7.33-49.63,33.31-27.07,16.96-23.36,14.16ZM50,117.28l17.91-12.06,25.76-14.92-23.4-24.78c-4.2-4.44-9.67-6.67-14.12-10.2l-11.1-8.79-13.85-11.41-11.22-9.54c-1.87,13.26-1.68,24.66-1.85,37.27l-.59,44.11-.26,22.8-.23,14.57,13.51-11.36,10.48-8.52,8.96-7.16Z"/>
      <path class="cls-1" d="M50,117.28l-8.96,7.16-10.48,8.52-13.51,11.36.23-14.57.26-22.8.59-44.11c.17-12.62-.02-24.02,1.85-37.27l11.22,9.54,13.85,11.41,11.1,8.79c4.45,3.53,9.93,5.76,14.12,10.2l23.4,24.78-25.76,14.92-17.91,12.06ZM65.35,96.28l6.81-2.99c1.59-.7,3.82-3.05,3.57-4.7-.2-1.32-2.24-3.54-3.6-4.2l-26.46-12.7-8.59-4.12c-1.19-.57-2.8-3.44-4.02-3.38-1.04.05-2.68,1.94-3.29,3.02l-1,40.38,1.79,3.91c1,2.18,7.58-.16,13.59-3.84l9.4-5.76,11.8-5.63Z"/>
      <path class="cls-2" d="M65.35,96.28l-11.8,5.63-9.4,5.76c-6.01,3.68-12.6,6.03-13.59,3.84l-1.79-3.91,1-40.38c.61-1.08,2.24-2.98,3.29-3.02,1.22-.05,2.83,2.81,4.02,3.38l8.59,4.12,26.46,12.7c1.36.65,3.4,2.88,3.6,4.2.25,1.65-1.99,4-3.57,4.7l-6.81,2.99Z"/>
    </g>
  </g>
</svg>