<?xml version="1.0" encoding="UTF-8"?>
<svg id="Layer_2" data-name="Layer 2" xmlns="http://www.w3.org/2000/svg" viewBox="0 0 117.51 158.3">
  <defs>
    <style>
      .cls-1 {
        fill: #7c7eb8;
      }
    </style>
  </defs>
  <g id="Layer_1-2" data-name="Layer 1">
    <g>
      <path class="cls-1" d="M2.22,144.05l2.49-14.89,1.76-10.03,1.79-10.31,3.8-29.63,5.37-43.33.87-9.51.72-9.53.74-9.71L45.33,1.72l14.92-1.72c-1.89,19.3-5.18,36.88-8.34,55.63l-6.48,38.52-3.56,29.42-4.18,34.73-26.01-2.89-11.68-1.29,2.22-10.07Z"/>
      <path class="cls-1" d="M88.86,144.26l-24,7.47,1.63-12.55,2.93-21.05,8.51-54.85,1.58-12.8,2.82-27.2,1.44-8.34,33.74-2.92-3.49,13.44-4.5,16.45-5.62,24.57-4.19,23.83-2.34,12.38c-2.65,14.02-4.31,27.85-8.52,41.57Z"/>
    </g>
  </g>
</svg>