<?xml version="1.0" encoding="UTF-8"?>
<svg id="Layer_2" data-name="Layer 2" xmlns="http://www.w3.org/2000/svg" viewBox="0 0 132.24 111.11">
  <defs>
    <style>
      .cls-1 {
        fill: #7c7eb8;
      }

      .cls-2 {
        fill: #7e80b7;
      }
    </style>
  </defs>
  <g id="Layer_1-2" data-name="Layer 1">
    <g>
      <path class="cls-1" d="M48.64,74.31l-17.07,12.25-10.87,8.21-10.68,8.23-8.62,7L.27,67.84c-.43-15.89-.6-31.27,1.53-47.18.78-5.86.29-10.91-.22-17.97,4.53,2.48,8.01,6.36,11.49,10.59,5.48,6.65,13.02,10.87,19.71,16.22,9.07,7.26,18.95,12.48,29.57,17.4l21.59,10.02-15.61,7.55-19.69,9.83Z"/>
      <path class="cls-2" d="M57.03,97.48l-20.14,13.62-.64-14.73c13.13-11.43,27.74-19.53,43.34-26.71l20.9-11.03c-.88-1.41-2.51-3.46-3.53-4.14l-11.58-7.67-40.44-25.46L45.84.23c.09-.57,3.56,0,4.26.91l6.49,8.45c7.35,7.03,15.29,12.85,23.66,18.38l21.72,14.36c9.89,6.53,19.2,11.97,30.27,16.97-1.97,1.8-4.01,3.26-5.83,4.04l-35.79,15.3-33.58,18.85Z"/>
    </g>
  </g>
</svg>