<svg width="32" height="32" viewBox="0 0 32 32" fill="none" xmlns="http://www.w3.org/2000/svg">
<path d="M31.6368 27.7778V31H30.0247V27.7778H31.6368Z" fill="white"/>
<path d="M8.42275 10.0556L0.362305 2V4.41667L6.16586 10.0556H8.42275Z" fill="white"/>
<path d="M15.5156 21.3339L25.1881 21.3337L31.6368 27.7778H21.9645L15.5156 21.3339Z" fill="white"/>
<path d="M5.8434 11.6667H18.7401L26.8005 19.7221H13.9038L5.8434 11.6667Z" fill="white"/>
<path d="M31.6368 29.3889V31H21.9643V29.3889H31.6368Z" fill="white"/>
<path d="M13.9038 19.7221V26.1667L5.8434 18.1111V11.6667L13.9038 19.7221Z" fill="white"/>
<path d="M21.9645 27.7778L21.9643 31L15.5159 24.5556V21.3333L21.9645 27.7778Z" fill="white"/>
<path d="M10.8409 10.0556H8.42275L0.362305 2H2.78048L10.8409 10.0556Z" fill="white"/>
</svg>
