<?xml version="1.0" encoding="UTF-8"?>
<svg id="Layer_2" data-name="Layer 2" xmlns="http://www.w3.org/2000/svg" viewBox="0 0 77.24 74.48">
  <defs>
    <style>
      .cls-1 {
        fill: #ff8080;
      }

      .cls-2 {
        fill: #8080ff;
      }
    </style>
  </defs>
  <g id="Layer_4" data-name="Layer 4">
    <g>
      <polygon class="cls-2" points="0 18.76 0 35.68 77.24 35.68 77.24 12.44 0 18.76"/>
      <rect class="cls-2" x="0" width="41.96" height="6.49"/>
      <rect class="cls-2" x="0" y="48.39" width="41.96" height="6.49"/>
      <rect class="cls-2" x="0" y="66.39" width="41.96" height="6.49"/>
      <path class="cls-1" d="M59.22,37.61c-1.9,3.95-6.65,12.49-12.97,14.55-.19.06-.22.31-.03.4,1.53.67,6.31,2.33,10.52-.79.13-.1.32-.03.34.14l2.88,22.39c.03.25.38.26.43.01l4.44-23.27c.03-.15.19-.23.32-.15.98.6,4.62,2.51,9,.67.16-.07.2-.3.04-.39-1.71-1.06-9.13-5.99-13.11-13.57-.4-.76-1.48-.75-1.85.02Z"/>
    </g>
  </g>
</svg>