<svg width="32" height="32" viewBox="0 0 32 32" fill="none" xmlns="http://www.w3.org/2000/svg">
<path fill-rule="evenodd" clip-rule="evenodd" d="M20.9154 1.52227C19.0318 0.142245 16.4726 -0.300878 13.1761 0.198652C8.5 1.03507 6 6.34336 6 7.99174V26.6917C6 29.6234 8.23858 32 11 32C12.3989 32 13.6618 31.3881 14.5693 30.4051C15.1254 29.9357 15.702 29.3716 16.2767 28.7376C17.6235 27.2518 19.0649 25.3062 20.4092 23.1598C22.2058 20.291 23.2858 19.0984 24.9779 15.4462C25.6319 14.0344 26 12.4464 26 10.7668C26 6.80079 23.9503 3.34498 20.9154 1.52227ZM14.6833 3.01695C17.57 2.56709 22.2819 3.55175 24.0257 8.78142C24.082 8.95032 24.1353 9.12368 24.1852 9.30154C24.2011 9.35828 24.2081 9.4156 24.2113 9.47261C24.2282 9.76051 24.0923 10.0401 23.8532 10.1983C23.3958 10.5003 22.7932 10.2295 22.6048 9.69378C21.1271 5.4927 16.9913 4.36067 14.7288 4.80193C11.62 5.70341 9.8274 9.00055 10.5768 12.1423C11.5629 13.2506 12.1684 14.7489 12.1686 16.3948C12.1682 18.1776 11.3245 19.6635 10.1325 20.6784C9.45322 21.2569 9.13148 22.001 9.00618 22.7727C8.84855 23.7439 8.08186 24.0341 7.66666 23.1529C7.28491 22.3422 7.36704 21.6237 7.65202 21.0102H7.65527C7.68723 20.9415 7.72442 20.8758 7.76107 20.8097C7.83338 20.6797 7.91216 20.5543 7.9987 20.4348C8.33074 19.9744 8.74539 19.5921 9.08919 19.2995C9.68701 18.7907 10.1201 18.1565 10.3392 17.442C10.3503 17.4061 10.3634 17.371 10.3734 17.3348C10.3926 17.2641 10.4089 17.1927 10.4238 17.1206C10.4362 17.0622 10.4469 17.0035 10.4564 16.9443C10.4654 16.8859 10.4746 16.8274 10.4808 16.768C10.494 16.6455 10.5019 16.5211 10.502 16.3948C10.5018 15.1501 10.0176 14.027 9.2373 13.2223L9.06315 13.0426L9.00781 12.792C9.00034 12.7586 8.99303 12.721 8.98991 12.7056C8.98807 12.6966 8.98606 12.6894 8.98502 12.6849L8.9834 12.6797C7.93738 8.53417 10.3098 4.22716 14.3252 3.08434L14.3561 3.0757L14.3854 3.06879L14.6833 3.01695Z" fill="url(#paint0_linear_134_440)"/>
<path d="M10.834 8.42559C10.3875 9.57761 10.274 10.8727 10.5768 12.1423C11.5629 13.2506 12.1684 14.7489 12.1686 16.3948C12.1682 18.1776 11.3245 19.6635 10.1325 20.6784C9.45322 21.2569 9.13148 22.001 9.00618 22.7727C8.84855 23.7439 8.08186 24.0341 7.66666 23.1529C7.61785 23.0492 7.57882 22.946 7.54459 22.8454C7.77959 23.9161 8.94642 24.5823 9.96484 23.9928L16.2799 20.3364C19.9165 18.2305 19.7019 12.6123 15.917 10.8257L10.834 8.42559Z" fill="#A56D44"/>
<path d="M24.3333 7.22803C22.9182 1.62094 19.3333 -0.734363 13.1761 0.198652C8.5 1.03507 6 6.34336 6 7.99174V21.3783C6.58333 21.3579 7.13908 21.225 7.65527 21.0102C7.99242 20.2854 8.61077 19.7066 9.08919 19.2995C9.9658 18.5534 10.5016 17.5424 10.502 16.3948C10.5018 15.1501 10.0176 14.027 9.2373 13.2223L9.06315 13.0426L9.00781 12.792C9.00034 12.7586 8.99303 12.721 8.98991 12.7056C8.98807 12.6966 8.98606 12.6894 8.98502 12.6849L8.9834 12.6797C7.93738 8.53417 10.3098 4.22716 14.3252 3.08434L14.3561 3.0757L14.3854 3.06879L14.6833 3.01695C17.6633 2.55255 22.5882 3.6168 24.1852 9.30154C24.2023 9.36232 24.2103 9.42374 24.2129 9.48475C24.1794 9.35206 24.2588 9.61712 24.2129 9.48475L24.3333 7.22803Z" fill="#DD9E6E"/>
<defs>
<linearGradient id="paint0_linear_134_440" x1="21.8333" y1="3.68919" x2="17.1895" y2="17.6863" gradientUnits="userSpaceOnUse">
<stop stop-color="#A56D44"/>
<stop offset="1" stop-color="#D49E75"/>
</linearGradient>
</defs>
</svg>
