<svg width="32" height="32" viewBox="0 0 32 32" fill="none" xmlns="http://www.w3.org/2000/svg">
<path d="M12.75 3.55556C12.75 1.59188 14.4289 0 16.5 0C18.5711 0 20.25 1.59188 20.25 3.55556V11.5556C20.25 12.0465 19.8303 12.4444 19.3125 12.4444H13.6875C13.1697 12.4444 12.75 12.0465 12.75 11.5556V3.55556Z" fill="#C45E44"/>
<path d="M21.9401 2.21875C23.2158 3.4936 24 5.21501 24 7.11111V32H9V7.11111C9 5.21544 9.78287 3.49351 11.0581 2.21875C10.9416 2.6463 10.875 3.0935 10.875 3.55556V11.5556C10.875 13.0283 12.1342 14.2222 13.6875 14.2222H19.3125C20.8658 14.2222 22.125 13.0283 22.125 11.5556V3.55556C22.125 3.09334 22.0566 2.64642 21.9401 2.21875Z" fill="#DCA192"/>
<path d="M16.5 0C18.5711 0 20.25 1.59188 20.25 3.55556V11.5556L20.2317 11.7344C20.1445 12.1396 19.7657 12.4444 19.3125 12.4444H13.6875C13.2343 12.4444 12.8555 12.1396 12.7683 11.7344L12.75 11.5556V3.55556C12.75 1.59188 14.4289 0 16.5 0Z" fill="#DCA192"/>
<path d="M16.5 19.5556C17.9408 19.5556 19.344 19.7184 20.6895 20.026L19.8105 23.4826C18.7508 23.2403 17.6425 23.1111 16.5 23.1111C15.3575 23.1111 14.2492 23.2403 13.1895 23.4826L12.3105 20.026C13.656 19.7184 15.0592 19.5556 16.5 19.5556Z" fill="#B7634F"/>
</svg>
