<svg width="32" height="32" viewBox="0 0 32 32" fill="none" xmlns="http://www.w3.org/2000/svg">
<g clip-path="url(#clip0_134_442)">
<path d="M15.8769 25.6883C20.9961 23.7335 24.2916 23.8318 26.2491 25.6034C26.3787 25.7207 26.5017 25.8462 26.6198 25.9781C24.2272 29.0165 21.9907 29.5874 20.1327 29.0888C19.917 29.0309 19.7061 28.961 19.5011 28.8765L21.5813 32H19.5011L14.4662 25.9781L15.8769 25.6883Z" fill="#A1215D"/>
<path fill-rule="evenodd" clip-rule="evenodd" d="M14.0151 0.204001C16.3192 -0.272892 18.8637 0.107841 21.0402 1.12149L21.4721 1.33379C23.3488 2.30368 24.9753 3.79263 25.8753 5.70342L27.6208 6.89967C29.2402 8.00975 30.3627 9.31289 31.065 10.7303C31.9933 12.6058 32.1584 14.6188 31.873 16.5417C31.4751 19.2181 30.2474 21.7837 28.8607 23.7616L28.1031 24.8397L27.9807 24.7031C25.2612 21.6616 20.847 21.8044 15.3809 23.865L12.3794 24.4816C8.98233 24.1786 6.31559 23.2871 4.31954 21.9285C1.48949 20.0012 0.158824 17.2407 0.0134218 14.4261C-0.127921 11.6777 0.857663 8.95962 2.46969 6.92736C3.98312 5.0197 6.74091 3.8959 9.35625 3.7669C10.392 1.88412 11.9209 0.73876 13.558 0.311072L14.0151 0.204001ZM20.2772 2.84387C18.2821 1.91487 15.9713 1.63296 14.0115 2.14421L13.648 2.25867C11.8125 2.92834 9.85856 5.10424 9.8583 9.68538L9.65856 9.70569L9.46422 9.75922C8.99155 9.92529 8.38975 10.3886 7.8429 11.3265C7.30881 12.244 6.96709 13.4127 6.93957 14.6088C6.94762 14.7895 6.96532 14.9716 6.98995 15.1516C7.18478 16.5715 7.91368 17.9944 9.54159 19.0652C11.0667 20.0674 14.8531 20.8138 18.8196 20.7931C22.833 19.8928 25.6187 20.5822 27.3653 22.6577C28.551 20.9665 29.5725 18.8483 29.9781 16.6893L30.0501 16.2574C30.2909 14.635 30.1403 13.0377 29.4221 11.5868C28.8784 10.4898 27.9837 9.42314 26.5969 8.47252C26.6761 9.67113 26.4878 10.9414 25.9887 12.2551L25.9401 12.364C25.6782 12.8508 25.0426 12.9452 24.6157 12.5911L24.5275 12.5099C24.2554 12.2202 24.1895 11.7887 24.326 11.4114C24.9186 9.77879 24.8752 8.34566 24.4682 7.1452C23.8802 5.41403 22.4693 3.96646 20.6479 3.02478L20.2772 2.84387Z" fill="#C74280"/>
<path d="M15.5509 1.90539C17.1167 1.81559 18.7857 2.14942 20.2772 2.84387L20.6479 3.02478C21.0837 3.25013 21.4947 3.50632 21.8778 3.78653C21.9031 3.80499 21.9284 3.82323 21.9534 3.84191C22.4234 4.19333 22.8481 4.58403 23.2166 5.00863C23.4721 5.30274 23.7006 5.6126 23.8986 5.9372C24.1328 6.32128 24.3253 6.72438 24.4682 7.1452C24.8752 8.34566 24.9186 9.77879 24.326 11.4114C24.1895 11.7887 24.2554 12.2202 24.5275 12.5099L24.6157 12.5911C24.6208 12.5953 24.6259 12.5993 24.631 12.6033C24.6664 12.6314 24.7049 12.6532 24.7426 12.6753C24.7825 12.6987 24.8231 12.7176 24.8649 12.7344C24.888 12.7437 24.9099 12.7548 24.9333 12.7621C24.9921 12.7803 25.0515 12.7913 25.1115 12.7972C25.1169 12.7977 25.1222 12.7986 25.1277 12.799C25.1973 12.8045 25.2665 12.8043 25.3346 12.7935C25.3438 12.792 25.3525 12.7878 25.3616 12.7861C25.4204 12.7747 25.4774 12.7579 25.5325 12.7344C25.549 12.7274 25.5634 12.7166 25.5793 12.7086C25.6239 12.6861 25.6668 12.6617 25.7071 12.631C25.7445 12.6026 25.7805 12.5723 25.8133 12.5369C25.8217 12.5277 25.8303 12.5188 25.8385 12.5092C25.8996 12.4368 25.9514 12.3533 25.9887 12.2551C26.4878 10.9414 26.6761 9.67113 26.5969 8.47252C27.9837 9.42314 28.8784 10.4898 29.4221 11.5868C30.1403 13.0377 30.2909 14.635 30.0501 16.2574L29.9781 16.6893C29.8876 17.1709 29.7605 17.6499 29.6137 18.1231C29.1024 19.7713 28.2866 21.3438 27.3653 22.6577L27.0243 22.2859C27.0162 22.2777 27.0073 22.2701 26.9991 22.2619C26.8961 22.1586 26.79 22.0596 26.6806 21.9647C26.6644 21.9506 26.6484 21.9362 26.632 21.9223C26.3933 21.7195 26.1396 21.5369 25.8708 21.374C25.863 21.3692 25.8554 21.3639 25.8475 21.3592C25.3244 21.0454 24.7433 20.8123 24.1038 20.6522C24.0387 20.6359 23.9739 20.6169 23.9076 20.6023C23.7741 20.5728 23.6377 20.5496 23.4992 20.5266C23.4467 20.518 23.394 20.5085 23.3408 20.5008C23.1982 20.48 23.0532 20.463 22.9053 20.4491C22.8458 20.4435 22.7858 20.4388 22.7254 20.4343C21.7939 20.3653 20.7614 20.4271 19.6213 20.63C19.5884 20.6359 19.5554 20.6424 19.5223 20.6485C19.3112 20.6873 19.0966 20.7312 18.8781 20.7795C18.8571 20.7842 18.8362 20.7896 18.8151 20.7943C14.8504 20.8143 11.0662 20.067 9.54159 19.0652C7.91368 17.9944 7.18478 16.5715 6.98995 15.1516C6.96612 14.9775 6.95067 14.8014 6.94227 14.6266C6.94998 14.2433 6.98874 13.8635 7.05743 13.4931C7.07226 13.4126 7.08856 13.3326 7.10602 13.2531C7.26135 12.5508 7.51411 11.8912 7.8429 11.3265C8.36544 10.4302 8.93817 9.96865 9.40034 9.78439C9.42161 9.77591 9.44343 9.76654 9.46422 9.75922L9.65856 9.70569L9.8583 9.68538C9.85837 5.53456 11.4643 3.36291 13.1306 2.49244C13.3033 2.40229 13.4757 2.32155 13.648 2.25867L14.0115 2.14421C14.4921 2.0188 14.9929 1.94121 15.5059 1.90909C15.5209 1.90814 15.5359 1.90626 15.5509 1.90539Z" fill="url(#paint0_linear_134_442)"/>
</g>
<defs>
<linearGradient id="paint0_linear_134_442" x1="19.0725" y1="3.75455" x2="19.0725" y2="22.6582" gradientUnits="userSpaceOnUse">
<stop stop-color="#CF9BB2"/>
<stop offset="1" stop-color="#CE568A"/>
</linearGradient>
<clipPath id="clip0_134_442">
<rect width="32" height="32" fill="white"/>
</clipPath>
</defs>
</svg>
