<svg width="32" height="32" viewBox="0 0 32 32" fill="none" xmlns="http://www.w3.org/2000/svg">
<path d="M14.7159 0.161346C14.7163 0.0181607 14.8907 -0.0539254 14.9927 0.04726L17.836 2.87738C17.9118 2.95287 17.9545 3.05546 17.9546 3.1622V25.5545L17.9459 25.8858C17.7725 29.2915 14.9429 32 11.4773 32C7.90002 32 5.00007 29.1142 5 25.5545C5.00013 21.9949 7.90006 19.1091 11.4773 19.1091C11.8925 19.1091 12.3794 19.1487 12.7727 19.2232V22.5671C12.3976 22.4159 11.9069 22.3318 11.4773 22.3318C9.68871 22.3318 8.23877 23.7748 8.23864 25.5545C8.23871 27.3343 9.68867 28.7773 11.4773 28.7773C13.2659 28.7773 14.7159 27.3343 14.7159 25.5545V0.161346Z" fill="url(#paint0_linear_139_536)"/>
<path d="M19.8978 5.80247C19.8979 5.65887 20.0712 5.58735 20.173 5.68918L24.5528 9.9851C26.0537 11.3128 27 13.2473 27 15.403C26.9999 18.1131 25.505 20.4749 23.2915 21.7191C22.9866 21.8906 22.6275 21.6588 22.6275 21.3103V18.3895C22.6275 18.2645 22.6772 18.1451 22.76 18.051C23.3828 17.3427 23.7613 16.4164 23.7614 15.4014C23.7613 14.3161 23.329 13.3319 22.6275 12.6075L20.0467 10.1063C19.9559 10.0157 19.8978 9.89273 19.8978 9.7648V5.80247Z" fill="url(#paint1_linear_139_536)"/>
<defs>
<linearGradient id="paint0_linear_139_536" x1="16" y1="0" x2="16" y2="32" gradientUnits="userSpaceOnUse">
<stop stop-color="#20df3c"/>
<stop offset="1" stop-color="#366343"/>
</linearGradient>
<linearGradient id="paint1_linear_139_536" x1="16" y1="0" x2="16" y2="32" gradientUnits="userSpaceOnUse">
<stop stop-color="#20df3c"/>
<stop offset="1" stop-color="#366343"/>
</linearGradient>
</defs>
</svg>
