<svg width="32" height="32" viewBox="0 0 32 32" fill="none" xmlns="http://www.w3.org/2000/svg">
<g clip-path="url(#clip0_141_659)">
<path d="M0.0261742 13.0147C-0.126281 12.2202 0.406562 11.469 1.12254 11.469H30.8775C31.5934 11.469 32.1263 12.2202 31.9738 13.0147L28.7156 29.994C28.4909 31.165 27.5781 32 26.5228 32H5.47717C4.42188 32 3.50915 31.165 3.28444 29.994L0.0261742 13.0147Z" fill="url(#paint0_linear_141_659)"/>
<path d="M31.0092 11.4777C31.6572 11.563 32.1168 12.2698 31.9738 13.0147L28.7156 29.994L28.6653 30.2095C28.3953 31.1955 27.6249 31.9006 26.7191 31.9903L26.5228 32L26.523 30.0887C26.7867 30.0887 27.0146 29.8798 27.0709 29.5872L30.1818 13.3805H1.81816L4.92913 29.5872C4.98538 29.8798 5.21334 30.0887 5.47703 30.0887L5.47717 32L5.28089 31.9903C4.37506 31.9006 3.60473 31.1955 3.33475 30.2095L3.28444 29.994L0.0261742 13.0147C-0.126281 12.2202 0.406562 11.469 1.12254 11.469H30.8775L31.0092 11.4777ZM26.523 30.0887L26.5228 32H5.47717L5.47703 30.0887H26.523Z" fill="#CC9B31"/>
<path d="M3.34412 1.9115V9.11151C3.34412 9.18189 3.39436 9.23894 3.45633 9.23894H28.5415C28.6035 9.23894 28.6537 9.18189 28.6537 9.11151V6.0177C28.6537 4.96201 27.9001 4.1062 26.9705 4.1062H15.4686C14.6766 4.1062 13.9432 3.63211 13.5389 2.85872L12.5334 0.935607C12.2302 0.355565 11.6802 0 11.0862 0H5.02727C4.09769 0 3.34412 0.855808 3.34412 1.9115Z" fill="#CC9B31"/>
</g>
<defs>
<linearGradient id="paint0_linear_141_659" x1="0" y1="21.7345" x2="32" y2="21.7345" gradientUnits="userSpaceOnUse">
<stop offset="0.25" stop-color="#FFEA83"/>
<stop offset="1" stop-color="#CEA03D"/>
</linearGradient>
<clipPath id="clip0_141_659">
<rect width="32" height="32" fill="white"/>
</clipPath>
</defs>
</svg>
