<svg width="32" height="32" viewBox="0 0 32 32" fill="none" xmlns="http://www.w3.org/2000/svg">
<path d="M32 27.7778V31H30.3505V27.7778H32Z" fill="white"/>
<path d="M8.24742 10.0556L0 2V4.41667L5.93818 10.0556H8.24742Z" fill="white"/>
<path d="M15.5048 21.3339L25.4017 21.3337L32 27.7778H22.1033L15.5048 21.3339Z" fill="white"/>
<path d="M5.60825 11.6667H18.8041L27.0515 19.7221H13.8557L5.60825 11.6667Z" fill="white"/>
<path d="M32 29.3889V31H22.1031V29.3889H32Z" fill="white"/>
<path d="M13.8557 19.7221V26.1667L5.60825 18.1111V11.6667L13.8557 19.7221Z" fill="white"/>
<path d="M22.1033 27.7778L22.1031 31L15.5052 24.5556V21.3333L22.1033 27.7778Z" fill="white"/>
<path d="M10.7217 10.0556H8.24742L0 2H2.47427L10.7217 10.0556Z" fill="white"/>
</svg>
