<svg width="32" height="32" viewBox="0 0 32 32" fill="none" xmlns="http://www.w3.org/2000/svg">
<g clip-path="url(#clip0_134_452)">
<path fill-rule="evenodd" clip-rule="evenodd" d="M7.61766 8.51566C7.61768 3.66607 12.0522 0.000384569 17.1689 0C19.6038 1.5447e-05 21.8516 0.81371 23.5572 2.18059C24.1849 2.68377 24.1225 3.61851 23.514 4.14488C22.9237 4.65526 22.0401 4.5846 21.4021 4.13526C20.2626 3.33266 18.7934 2.8375 17.1689 2.83749C13.3338 2.83786 10.5118 5.52757 10.5118 8.51566H15.985C17.7944 8.51576 18.7011 10.7925 17.4217 12.1238L10.4462 19.3817L10.2926 19.5259C9.49507 20.2028 8.31811 20.1549 7.57446 19.3817L0.599027 12.1238C-0.680234 10.7926 0.225067 8.51621 2.03411 8.51566H7.61766ZM15.0043 11.0519H3.01483L9.00955 17.2893L15.0043 11.0519Z" fill="url(#paint0_linear_134_452)"/>
<path d="M5.32372 11.0422H12.6959L8.99542 14.7336L5.32372 11.0422Z" fill="#B4E1B2"/>
<path fill-rule="evenodd" clip-rule="evenodd" d="M24.3823 23.4843C24.3823 28.3339 19.9478 31.9996 14.8311 32C12.3962 32 10.1484 31.1863 8.44284 29.8194C7.81509 29.3162 7.87754 28.3815 8.48603 27.8551C9.07633 27.3447 9.95994 27.4154 10.5979 27.8647C11.7374 28.6673 13.2066 29.1625 14.8311 29.1625C18.6662 29.1621 21.4882 26.4724 21.4882 23.4843H16.015C14.2056 23.4842 13.2989 21.2075 14.5783 19.8762L21.5538 12.6183L21.7074 12.4741C22.5049 11.7972 23.6819 11.8451 24.4255 12.6183L31.401 19.8762C32.6802 21.2074 31.7749 23.4838 29.9659 23.4843H24.3823ZM16.9957 20.9481H28.9852L22.9905 14.7107L16.9957 20.9481Z" fill="url(#paint1_linear_134_452)"/>
<path d="M26.6763 20.9578H19.3041L23.0046 17.2664L26.6763 20.9578Z" fill="#B4E1B2"/>
</g>
<defs>
<linearGradient id="paint0_linear_134_452" x1="32" y1="22" x2="8" y2="22" gradientUnits="userSpaceOnUse">
<stop stop-color="#6BB37A"/>
<stop offset="1" stop-color="#367243"/>
</linearGradient>
<linearGradient id="paint1_linear_134_452" x1="32" y1="22" x2="8" y2="22" gradientUnits="userSpaceOnUse">
<stop stop-color="#6BB37A"/>
<stop offset="1" stop-color="#367243"/>
</linearGradient>
<clipPath id="clip0_134_452">
<rect width="32" height="32" fill="white"/>
</clipPath>
</defs>
</svg>
