<?xml version="1.0" encoding="UTF-8"?>
<svg id="Layer_2" data-name="Layer 2" xmlns="http://www.w3.org/2000/svg" xmlns:xlink="http://www.w3.org/1999/xlink" viewBox="0 0 32 32">
  <defs>
    <style>
      .cls-1 {
        fill: none;
      }

      .cls-2 {
        fill: #faf184;
      }

      .cls-3 {
        fill: #99d8e4;
      }

      .cls-4 {
        fill: #f37f81;
      }

      .cls-5 {
        fill: #c3dc7a;
      }

      .cls-6 {
        clip-path: url(#clippath);
      }

      .cls-7 {
        fill: #797cbb;
      }
    </style>
    <clipPath id="clippath">
      <rect class="cls-1" width="32" height="32"/>
    </clipPath>
  </defs>
  <g id="Layer_4" data-name="Layer 4">
    <g class="cls-6">
      <g>
        <g>
          <path class="cls-4" d="M36.29-10.21c1.05,1.22,1.83,2.79,2.34,4.56s1.05,3.4,1.3,5.1c.57,3.87.41,7.87.27,11.82-.41,1.06-.71,2.45-.86,3.66.72,2.56,1.95,4.63,3.03,6.94l.6,1.29c-2.21-.82-4.76,1.67-6.24,4.01l-2.01-.54c-2.55-.69-3.38.36-4.02-.74l-1.92-3.32c-1.1-1.89-2.24-3.69-3.56-5.3.39-5.37.34-10.73-.2-16.02l-.07-1.56c-.44-3.33-1.51-6.39-2.71-9.31l1.19-.17,2.67-.19,3.34-.24,1.33-.15c.35.07.74,0,1.22,0l2.12-.03,2.17.19ZM34.73-2.69l1.28-1.82c.32-.45-.1-1.71-.38-2.24-.26-.5-1.23-1.13-1.71-.83l-1.66,1.03.59,3.46,1.88.4ZM30.82.73l-.08-2.05-1.47-1.2c-.25-.2-1.05-.23-1.16.18-.34,1.22-.45,2.32-.54,3.62l1.6.83,1.65-1.38ZM35.25,7.57c.73-.44,1.28-.89,1.81-1.44.37-.38.33-1.76.12-2.31-.25-.65-1.24-1.57-1.81-1.25-.75.42-1.46,1.1-2.13,1.67-.16.53-.24,1.59.01,2.12.28.58,1.47,1.47,1.99,1.21ZM31.47,10.44l-.62-3.07c-.06-.32-.9-.4-1.13-.21l-1.97,1.61c.47,1.1.8,2.19,1.63,2.76.65.19,1.7-.47,2.08-1.09ZM34.63,14.25l1.58-1.17-.85-2.11c-.87.54-1.42,1.03-1.88,1.9.15.51.7,1.29,1.15,1.38Z"/>
          <path class="cls-4" d="M18.64,33.68l-.73-1.47c-.62-1.97-1.9-2.8-3.57-3l-3.46-.42c-1.55-.19-3.2.19-4.74-.16-3.16-.72-5.61-2.76-7.46-5.76l-.29-.45-4.33-3.93c-.04-.87-.31-1.95-.46-2.84l.57-4.66,6.91-1.94c4.88,4.65,10.44,7.67,16.41,9.7l7.83,2.66c.93.32,1.65,1.57,2.35,2.31.93.97,1.49,2.46,1.18,3.89-.37,1.69-1.56,2.67-2.71,3.55l-3.23,2.49c-.91,1.9-1.43,3.89-2.04,5.87l-2.22-5.83ZM3.96,17.01c.51-.73.7-1.86.19-2.52-.49-.2-1.47-.3-2-.27l-1.09,1.22,1.16,1.89,1.74-.32ZM12.16,21.45c-.11-.96-.55-2.29-1.24-2.59-.92-.14-1.81-.06-2.78,0-.33.5-.59,1.21-.76,1.89l2.68,2.35,2.09-1.65ZM18.9,25.39c.85-.55.8-2.33.19-2.98l-1.81-.95-2.79,2.5,2.03,2.13c.77-.17,1.69-.26,2.38-.71Z"/>
        </g>
        <g>
          <path class="cls-2" d="M17.21-8.7l2.1,6.72,1.43,4.32c1.5.46,3.14.14,4.28-1.1.54,5.29.59,10.66.2,16.02-.74-.9-1.63-1.71-2.5-2.6-4.52-4.66-10.81-6.98-16.8-6.8l-5.44.1-5.76-2.12c0-1.05-.04-2.4.19-3.35.08-.31-1.5-.83-1.33-1.09V-3.04c2.69-1.77,8.41-.62,11.43-1.76l4.52-1.7,4.23-1.33c1.17-.37,2.33-.6,3.45-.86Z"/>
          <path class="cls-5" d="M34.96,43.08l-1.67.17h-2.15c-.32-1.01-1.12-1.24-1.18-2.2,1.35-.17,2.35-.44,3.32-1.06l-.31-1.72-1.83.28c-.91.14-1.73.14-2.67-.06l-.61-2.5,2.44-.11,2.84-.4-.15-1.51-2.23.02c-.87,0-1.56-.32-2.39-.93l1.62-4.2c.3.93.79,1.37,1.5,1.85s1.43.97,2.29,1c-.36-.61-.82-1.42-.63-2.11.22-.79,1.09-.47,1.41-.02.53.74.97,1.33,1,2.38l1.75-.37,2.21,4.37-4.19,6.19c-.17.25-.36.66-.39.95Z"/>
        </g>
        <g>
          <path class="cls-7" d="M31.47,10.44c-.38.62-1.44,1.28-2.08,1.09-.83-.57-1.16-1.67-1.63-2.76l1.97-1.61c.23-.19,1.07-.11,1.13.21l.62,3.07Z"/>
          <path class="cls-7" d="M30.82.73l-1.65,1.38-1.6-.83c.09-1.3.2-2.4.54-3.62.11-.41.91-.39,1.16-.18l1.47,1.2.08,2.05Z"/>
          <path class="cls-7" d="M59.51-1.31l.71,1.39-.88,1.02c-.83,1.09-1.68,2.26-2.66,3.17l-4.51,4.18-2.81,2.43c-2.45,2.12-4.88,4.02-7.59,5.69.97,2.01,1.86,3.94,3.02,5.61l1.29,1.86c1.21.71,1.74,1.94,2.2,3.36l2.12,6.66c-.86,1.28-1.91,2.07-2.98,2.97l-2.42,2.05-5.07-2.22-1.27,4.38.02,1.02-2.21.61-1.5.19c.03-.29.22-.7.39-.95l4.19-6.19-2.21-4.37-1.75.37c-.03-1.05-.47-1.64-1-2.38-.32-.44-1.19-.76-1.41.02-.19.69.27,1.5.63,2.11-.86-.03-1.57-.51-2.29-1s-1.21-.91-1.5-1.85l-1.62,4.2c.83.61,1.52.94,2.39.93l2.23-.02.15,1.51-2.84.4-2.44.11.61,2.5c.94.2,1.75.2,2.67.06l1.83-.28.31,1.72c-.97.61-1.97.88-3.32,1.06.06.95.86,1.18,1.18,2.19-3.45-.01-7.39.05-10.01-3.12l-9.47,3.24-.35-2.3s.13-.47.09-.63l-.61-2.8-.23-1.22,7.49-2.39.59-.34,2.22,5.83c.61-1.99,1.13-3.97,2.04-5.87l3.23-2.49c1.15-.89,2.34-1.86,2.71-3.55.31-1.43-.25-2.92-1.18-3.89-.71-.74-1.42-2-2.35-2.31l-7.83-2.66c-5.97-2.03-11.53-5.04-16.41-9.7l-6.75,3.14-.67-2.36c-.12-1.25,1.08-2.78,1.07-3.96L.47,7.97l5.44-.1c5.99-.18,12.29,2.13,16.8,6.8.87.9,1.76,1.7,2.5,2.6,1.32,1.61,2.46,3.4,3.56,5.3l1.92,3.32c.64,1.1,1.47.05,4.02.74l2.01.54c1.48-2.33,4.03-4.82,6.24-4.01l-.6-1.29c-1.08-2.31-2.31-4.38-3.03-6.94.15-1.21.45-2.6.86-3.66.7-1.82,1.47-3.63,2.6-5.23,1.99-2.83,4.53-4.94,7.42-6.25,1.84-.84,3.68-1.01,5.61-1.16,1.28-.11,2.51-.16,3.69.07ZM49.51,8.34c1.09-.85,1.95-2.01,2.82-3.06l1.41-1.72c.69-.84,1.2-1.77,1.62-2.91-2.09,0-3.93.66-5.85,1.43-1.56.62-2.93,1.46-4.16,2.71.32,2.06.66,3.86,1.14,5.91l3.04-2.36ZM42.14,13.43l2.13-1.31-1.4-4.33c-.89,1.83-1.97,3.77-2.12,6.17.52-.13.96-.26,1.39-.53ZM13.09,15.39l-.86-5.34-2.8-.86h-1.94c.9,2.99,3.39,5.09,5.59,6.2ZM23.95,17.79l-2.05-1.96c-2.06-1.67-4.15-3.09-6.49-4.52.21,2.04.44,3.66.8,5.57,1.76.6,3.38,1.04,5.16,1.41.87.18,1.8.13,2.58-.5ZM45.38,33.68l1.81-1.38-.3-1.42-3.3,1.85-.59-1.59c1.21-.83,2.14-1.58,2.9-2.77l-1.2-2.2c-.52.98-1.15,1.85-1.88,2.37,0-1.08-.02-1.73-.51-2.27-.34-.38-1.16-.77-1.6-.23-.88,1.07-.75,2.89.05,4.01l-1.25.74.33,4.88,7.64,1.07v-2.14s-1.53.8-1.53.8l-.57-1.7Z"/>
          <path class="cls-7" d="M18.9,25.39c-.69.44-1.61.54-2.38.71l-2.03-2.13,2.79-2.5,1.81.95c.61.65.66,2.43-.19,2.98Z"/>
          <path class="cls-7" d="M12.16,21.45l-2.09,1.65-2.68-2.35c.17-.69.43-1.39.76-1.89.97-.05,1.86-.13,2.78,0,.69.3,1.13,1.62,1.24,2.59Z"/>
          <path class="cls-7" d="M3.96,17.01l-1.74.32-1.16-1.89,1.09-1.22c.52-.03,1.5.07,2,.27.51.66.32,1.79-.19,2.52Z"/>
        </g>
        <g>
          <path class="cls-3" d="M-1.63,22.41L.51,40.97l10.15-2.4.13-.93.61,2.8c.03.16-.08.63-.09.63l-.09-.59-10.37,3.54,1.51,13.18,12.45-1.4.16,1.56-11.86,2.24-1.15.31-3.87,1.03-.24-3.77-.16-3.18-.17-3.38-.17-3.38-2.32-3.3-.16-3.18-.17-3.38-.17-3.38-.16-3.18-.17-3.38-.17-3.38-.16-3.38-.14-3.01,4.65,4.78Z"/>
          <path class="cls-3" d="M22.25-9.63c1.2,2.93,2.26,5.98,2.71,9.31l.07,1.56c-1.14,1.23-2.77,1.56-4.28,1.1l-1.43-4.32-2.1-6.72c.92-.22,1.9-.59,2.9-.7l2.13-.23Z"/>
          <path class="cls-3" d="M23.95,17.79c-.78.63-1.71.68-2.58.5-1.78-.37-3.4-.81-5.16-1.41-.36-1.9-.59-3.53-.8-5.57,2.34,1.42,4.43,2.85,6.49,4.52l2.05,1.96Z"/>
          <path class="cls-3" d="M13.09,15.39c-2.2-1.11-4.69-3.21-5.59-6.2h1.94s2.8.86,2.8.86l.86,5.34Z"/>
        </g>
      </g>
    </g>
  </g>
</svg>