<?xml version="1.0" encoding="UTF-8" standalone="no"?>
<svg
   id="Layer_2"
   data-name="Layer 2"
   viewBox="0 0 136 136"
   version="1.1"
   sodipodi:docname="app.pianocheetah.pianocheetah.svg"
   width="136"
   height="136"
   inkscape:version="1.4.4 (dcaf3e7d9e, 2026-05-05)"
   xmlns:inkscape="http://www.inkscape.org/namespaces/inkscape"
   xmlns:sodipodi="http://sodipodi.sourceforge.net/DTD/sodipodi-0.dtd"
   xmlns="http://www.w3.org/2000/svg"
   xmlns:svg="http://www.w3.org/2000/svg">
  <sodipodi:namedview
     id="namedview30"
     pagecolor="#ffffff"
     bordercolor="#000000"
     borderopacity="0.25"
     inkscape:showpageshadow="2"
     inkscape:pageopacity="0.0"
     inkscape:pagecheckerboard="0"
     inkscape:deskcolor="#d1d1d1"
     inkscape:zoom="7.0784178"
     inkscape:cx="67.882401"
     inkscape:cy="89.850587"
     inkscape:window-width="1920"
     inkscape:window-height="1044"
     inkscape:window-x="0"
     inkscape:window-y="0"
     inkscape:window-maximized="1"
     inkscape:current-layer="Layer_2" />
  <defs
     id="defs1">
    <style
       id="style1">
      .cls-1 {
        fill: #faf184;
      }

      .cls-2 {
        fill: #99d8e4;
      }

      .cls-3 {
        fill: #f37f81;
      }

      .cls-4 {
        fill: #797cbb;
      }
    </style>
  </defs>
  <g
     id="Layer_3"
     data-name="Layer 3"
     transform="matrix(1.0009492,0,0,1,0.01680863,10.36)">
    <g
       id="g30">
      <polygon
         class="cls-4"
         points="86.63,15.42 84.42,15.63 78.88,15.97 74.46,16.24 71.15,12.55 65.59,6.81 63.8,4.68 82.13,0 85.29,15.24 "
         id="polygon1" />
      <path
         class="cls-2"
         d="m 32.94,61.02 3.53,25.8 16.81,-3.34 0.22,-1.29 1.02,3.89 c 0.06,0.22 -0.14,0.88 -0.16,0.87 l -0.14,-0.82 -17.18,4.92 2.5,18.33 20.62,-1.94 0.26,2.16 -19.64,3.12 -1.9,0.42 -6.41,1.43 -0.4,-5.24 -0.26,-4.43 -0.28,-4.7 -0.28,-4.7 -0.28,-4.7 -0.27,-4.42 -0.28,-4.7 -0.28,-4.7 -0.27,-4.42 -0.28,-4.7 -0.28,-4.7 -0.27,-4.7 -0.24,-4.19 4.14,6.76 z"
         id="path1" />
      <polygon
         class="cls-4"
         points="95.59,105.81 60.96,115.28 60.7,111.84 60.43,109.6 60.17,107.43 59.82,103.64 89.4,97.47 92.96,97.02 "
         id="polygon2" />
      <polygon
         class="cls-2"
         points="92.96,97.02 89.4,97.47 87.21,89.98 90.78,89.99 "
         id="polygon3" />
      <path
         class="cls-1"
         d="m 64.15,17.77 3.49,9.35 2.36,6.01 c 2.49,0.64 5.19,0.19 7.09,-1.53 0.9,7.35 0.98,14.82 0.33,22.28 -1.23,-1.25 -2.7,-2.37 -4.14,-3.62 C 65.8,43.78 55.37,40.55 45.45,40.81 L 36.44,40.95 26.91,38 c 0,-1.45 -0.07,-3.34 0.31,-4.65 0.13,-0.44 0.56,-1.29 0.84,-1.66 l 1.89,-2.53 c 4.43,-2.47 9,-4.38 14.01,-5.96 l 7.49,-2.37 7.01,-1.85 c 1.94,-0.51 3.86,-0.83 5.71,-1.2 z"
         id="path3" />
      <path
         class="cls-1"
         d="m 134.21,28.04 c -1.95,-0.32 -3.99,-0.24 -6.11,-0.09 -3.19,0.22 -6.24,0.46 -9.29,1.62 -4.78,1.82 -8.98,4.75 -12.29,8.69 -1.86,2.22 -3.15,4.74 -4.3,7.27 0.23,-5.49 0.5,-11.06 -0.45,-16.44 0.97,0.31 2.28,0.48 3.13,-0.21 0.49,-0.39 1.39,-1.43 1.51,-2.03 0.65,-3.39 0.36,-8.09 -1.83,-10.56 2.77,0.2 5.44,0.82 8.29,1.51 l 5.8,1.41 c 2.08,0.51 3.96,1.22 5.88,2.14 l 3.94,1.88 c 2.38,1.13 4.42,2.66 5.72,4.81 z"
         id="path4" />
      <path
         class="cls-3"
         d="m 109.81,60.71 c -1.91,-2.32 -3.4,-5.01 -5,-7.8 4.5,-2.32 8.51,-4.95 12.58,-7.91 l 4.66,-3.38 7.47,-5.82 c 1.62,-1.26 3.02,-2.89 4.4,-4.41 l 1.46,-1.42 c 1.87,3.07 -2.21,8.79 -4.94,12.03 l -3.29,3.89 c -2.55,3.03 -5.43,5.55 -8.41,8.23 -2.41,2.16 -5.1,4.11 -7.64,6.14 -0.27,0.22 -1,0.46 -1.3,0.45 z M 127.4,43.84 c 0.3,-0.18 0.24,-1.46 0.14,-1.61 -1.58,-0.37 -2.75,0.11 -3.85,1.46 0.33,0.49 0.83,1.11 1.36,1.59 l 2.35,-1.43 z m -6.51,6.18 c 0.62,-0.38 1.13,-1.7 1.09,-2.3 -0.02,-0.33 -0.71,-0.97 -0.95,-1.08 l -2.67,0.75 -0.11,2.25 c 0.59,0.32 1.88,0.85 2.65,0.38 z m -5.78,3.77 c 0.27,-0.19 0.41,-1.12 0.17,-1.31 l -3.01,-1.62 c -0.93,0.94 -1.94,2.08 -2.62,3.16 -0.01,0.86 1.5,2.48 2.34,1.91 z"
         id="path5" />
      <path
         class="cls-2"
         d="m 72.49,16.47 c 1.99,4.07 3.75,8.32 4.48,12.95 l 0.11,2.17 c -1.89,1.72 -4.59,2.17 -7.09,1.53 l -2.36,-6.01 -3.49,-9.35 c 1.52,-0.31 3.15,-0.82 4.81,-0.97 l 3.53,-0.33 z"
         id="path6" />
      <path
         class="cls-2"
         d="m 104.57,16.29 c 2.19,2.47 2.48,7.17 1.83,10.56 -0.12,0.6 -1.02,1.64 -1.51,2.03 -0.85,0.68 -2.16,0.52 -3.13,0.21 -0.42,-2.37 -1.33,-4.71 -2.15,-7.1 -0.85,-2.46 -2.14,-4.64 -3.87,-6.34 l 1.94,0.14 z"
         id="path7" />
      <path
         class="cls-2"
         d="m 117.65,41.46 -5.03,3.29 c -0.8,-2.85 -1.37,-5.35 -1.89,-8.21 2.05,-1.74 4.31,-2.91 6.9,-3.77 3.19,-1.07 6.23,-2 9.7,-1.99 -0.69,1.58 -1.54,2.87 -2.68,4.04 l -2.33,2.39 c -1.43,1.46 -2.86,3.08 -4.66,4.26 z"
         id="path8" />
      <path
         class="cls-2"
         d="m 105.44,48.54 c -0.72,0.37 -1.44,0.55 -2.31,0.73 0.24,-3.34 2.04,-6.03 3.51,-8.58 l 2.32,6.02 -3.53,1.83 z"
         id="path9" />
      <path
         class="cls-4"
         d="m 115.11,53.79 -3.12,2.14 c -0.84,0.58 -2.35,-1.05 -2.34,-1.91 0.68,-1.08 1.69,-2.22 2.62,-3.16 l 3.01,1.62 c 0.24,0.19 0.1,1.12 -0.17,1.31 z"
         id="path10" />
      <path
         class="cls-4"
         d="m 120.89,50.02 c -0.76,0.48 -2.06,-0.06 -2.65,-0.38 l 0.11,-2.25 2.67,-0.75 c 0.24,0.12 0.93,0.75 0.95,1.08 0.04,0.6 -0.47,1.92 -1.09,2.3 z"
         id="path11" />
      <path
         class="cls-3"
         d="m 95.75,15.65 c 1.73,1.7 3.02,3.88 3.87,6.34 0.82,2.38 1.73,4.73 2.15,7.1 0.95,5.38 0.69,10.94 0.45,16.44 -0.67,1.48 -1.18,3.41 -1.43,5.09 1.19,3.56 3.23,6.44 5.01,9.65 l 1,1.79 c -3.66,-1.13 -7.88,2.33 -10.33,5.57 l -3.33,-0.76 c -4.22,-0.96 -5.6,0.5 -6.65,-1.03 L 83.3,61.23 C 81.48,58.6 79.6,56.1 77.41,53.87 78.06,46.41 77.98,38.95 77.08,31.59 L 76.97,29.42 C 76.24,24.78 74.48,20.54 72.49,16.47 l 1.97,-0.23 4.43,-0.27 5.54,-0.33 2.21,-0.21 c 0.58,0.1 1.23,0 2.02,0 l 3.51,-0.04 3.59,0.27 z m -2.59,10.47 2.12,-2.53 c 0.53,-0.63 -0.17,-2.38 -0.63,-3.11 -0.44,-0.69 -2.04,-1.57 -2.83,-1.16 l -2.75,1.44 0.98,4.81 3.12,0.56 z m -6.48,4.75 -0.12,-2.85 -2.43,-1.66 c -0.42,-0.28 -1.74,-0.32 -1.93,0.25 -0.56,1.69 -0.75,3.22 -0.9,5.03 l 2.65,1.15 2.74,-1.92 z m 7.34,9.51 c 1.21,-0.61 2.12,-1.23 3,-2.01 0.61,-0.53 0.55,-2.45 0.2,-3.22 -0.41,-0.9 -2.05,-2.19 -3.01,-1.74 -1.24,0.58 -2.42,1.52 -3.52,2.32 -0.26,0.74 -0.4,2.21 0.02,2.95 0.46,0.81 2.43,2.04 3.3,1.69 z m -6.25,4 -1.02,-4.27 c -0.11,-0.45 -1.5,-0.56 -1.87,-0.3 l -3.26,2.24 c 0.78,1.52 1.33,3.05 2.7,3.84 1.07,0.27 2.82,-0.65 3.45,-1.51 z m 5.22,5.29 2.63,-1.63 -1.41,-2.93 c -1.43,0.75 -2.36,1.44 -3.12,2.64 0.24,0.7 1.16,1.8 1.9,1.92 z"
         id="path12" />
      <path
         class="cls-4"
         d="m 94.02,40.38 c -0.87,0.36 -2.84,-0.87 -3.3,-1.69 -0.42,-0.74 -0.29,-2.22 -0.02,-2.95 1.11,-0.8 2.28,-1.74 3.52,-2.32 0.95,-0.45 2.59,0.84 3.01,1.74 0.35,0.77 0.41,2.68 -0.2,3.22 -0.88,0.78 -1.79,1.39 -3,2.01 z"
         id="path13" />
      <path
         class="cls-4"
         d="m 93.16,26.12 -3.12,-0.56 -0.98,-4.81 2.75,-1.44 c 0.8,-0.42 2.4,0.47 2.83,1.16 0.46,0.74 1.16,2.48 0.63,3.11 l -2.12,2.53 z"
         id="path14" />
      <path
         class="cls-4"
         d="m 87.77,44.38 c -0.62,0.86 -2.38,1.78 -3.45,1.51 -1.38,-0.79 -1.92,-2.32 -2.7,-3.84 l 3.26,-2.24 c 0.37,-0.26 1.77,-0.15 1.87,0.3 z"
         id="path15" />
      <path
         class="cls-4"
         d="m 86.68,30.87 -2.74,1.92 -2.65,-1.15 c 0.15,-1.81 0.34,-3.34 0.9,-5.03 0.19,-0.57 1.51,-0.54 1.93,-0.25 l 2.43,1.66 0.12,2.85 z"
         id="path16" />
      <path
         class="cls-4"
         d="m 92.99,49.67 c -0.75,-0.12 -1.66,-1.21 -1.9,-1.92 0.76,-1.2 1.69,-1.89 3.12,-2.64 l 1.41,2.93 z"
         id="path17" />
      <path
         class="cls-4"
         d="m 127.4,43.84 -2.35,1.43 c -0.53,-0.48 -1.03,-1.1 -1.36,-1.59 1.1,-1.35 2.27,-1.83 3.85,-1.46 0.1,0.15 0.16,1.43 -0.14,1.61 z"
         id="path18" />
      <path
         class="cls-4"
         d="m 134.21,28.04 1.18,1.93 -1.46,1.42 c -1.38,1.52 -2.78,3.15 -4.4,4.41 l -7.47,5.82 -4.66,3.38 c -4.07,2.95 -8.08,5.58 -12.58,7.91 1.6,2.79 3.08,5.48 5,7.8 l 2.14,2.59 c 2,0.99 2.89,2.7 3.64,4.67 l 3.52,9.26 c -1.43,1.77 -3.16,2.87 -4.93,4.13 l -4.01,2.85 -8.4,-3.08 -2.1,6.09 0.03,1.42 -3.66,0.85 -2.49,0.27 c 0.05,-0.4 0.36,-0.97 0.64,-1.32 l 6.93,-8.61 -3.67,-6.08 -2.9,0.52 c -0.04,-1.45 -0.77,-2.28 -1.65,-3.31 -0.53,-0.62 -1.97,-1.06 -2.33,0.03 -0.31,0.96 0.44,2.09 1.04,2.94 -1.43,-0.04 -2.59,-0.71 -3.8,-1.38 -1.21,-0.67 -2,-1.27 -2.49,-2.57 l -2.68,5.84 c 1.37,0.84 2.52,1.3 3.95,1.29 l 3.7,-0.02 0.24,2.11 -4.7,0.56 -4.04,0.15 1,3.47 c 1.55,0.28 2.9,0.28 4.42,0.09 l 3.03,-0.39 0.52,2.39 c -1.61,0.85 -3.26,1.23 -5.5,1.47 0.1,1.33 1.42,1.65 1.96,3.04 C 81.51,89.96 75,90.05 70.65,85.64 l -15.69,4.51 -0.58,-3.19 c 0,0 0.21,-0.66 0.16,-0.87 l -1.02,-3.89 -0.38,-1.7 12.41,-3.32 0.98,-0.48 3.67,8.1 c 1.01,-2.76 1.87,-5.52 3.37,-8.17 l 5.36,-3.46 c 1.91,-1.23 3.88,-2.59 4.49,-4.94 C 83.93,66.24 83,64.16 81.46,62.82 80.29,61.79 79.1,60.05 77.56,59.61 L 64.6,55.91 C 54.71,53.09 45.49,48.9 37.42,42.43 l -10.03,2.8 -0.25,-2.25 C 26.95,41.25 26.91,39.65 26.91,38 l 9.53,2.95 9.01,-0.14 c 9.92,-0.25 20.35,2.97 27.83,9.45 1.44,1.25 2.92,2.37 4.14,3.62 2.19,2.23 4.07,4.73 5.89,7.36 l 3.19,4.61 c 1.05,1.52 2.43,0.07 6.65,1.03 l 3.33,0.76 c 2.45,-3.24 6.67,-6.71 10.33,-5.57 l -1,-1.79 c -1.78,-3.21 -3.82,-6.09 -5.01,-9.65 0.24,-1.68 0.75,-3.62 1.43,-5.09 1.16,-2.53 2.44,-5.05 4.3,-7.27 3.3,-3.94 7.51,-6.87 12.29,-8.69 3.05,-1.16 6.1,-1.4 9.29,-1.62 2.12,-0.15 4.16,-0.23 6.11,0.09 z m -16.56,13.42 c 1.8,-1.18 3.23,-2.8 4.66,-4.26 l 2.33,-2.39 c 1.14,-1.17 1.99,-2.46 2.68,-4.04 -3.47,-0.01 -6.51,0.92 -9.7,1.99 -2.59,0.86 -4.85,2.04 -6.9,3.77 0.52,2.87 1.1,5.36 1.89,8.21 l 5.03,-3.29 z m -12.21,7.08 3.53,-1.83 -2.32,-6.02 c -1.47,2.55 -3.27,5.24 -3.51,8.58 0.87,-0.19 1.59,-0.36 2.31,-0.73 z m -48.13,2.72 -1.42,-7.43 -4.64,-1.2 h -3.21 c 1.49,4.16 5.62,7.08 9.26,8.62 z m 17.99,3.33 -3.4,-2.73 c -3.42,-2.32 -6.87,-4.3 -10.75,-6.28 0.35,2.83 0.74,5.1 1.33,7.74 2.92,0.84 5.6,1.45 8.55,1.96 1.44,0.25 2.99,0.18 4.27,-0.69 z m 35.5,22.09 2.99,-1.91 -0.49,-1.98 -5.46,2.57 -0.98,-2.2 c 2,-1.16 3.54,-2.2 4.8,-3.86 l -1.99,-3.06 c -0.86,1.36 -1.9,2.57 -3.11,3.3 -0.01,-1.5 -0.04,-2.41 -0.84,-3.16 -0.57,-0.53 -1.92,-1.07 -2.65,-0.32 -1.46,1.48 -1.24,4.01 0.08,5.57 l -2.06,1.03 0.54,6.78 12.65,1.48 0.02,-2.98 -2.55,1.11 -0.94,-2.37 z"
         id="path19" />
      <path
         class="cls-3"
         d="m 66.51,76.68 -1.22,-2.04 c -1.03,-2.75 -3.15,-3.89 -5.92,-4.17 l -5.73,-0.59 c -2.57,-0.26 -5.3,0.27 -7.86,-0.22 -5.24,-1.01 -9.37,-4.62 -12.44,-8.78 l -0.4,0.14 -4.14,-6.76 c -0.07,-1.21 -0.14,-2.74 -0.4,-3.98 l -1.04,-5.06 10.03,-2.8 c 8.08,6.47 17.29,10.66 27.18,13.48 l 12.96,3.7 c 1.54,0.44 2.73,2.19 3.9,3.21 1.54,1.35 2.48,3.42 1.96,5.41 -0.61,2.35 -2.58,3.71 -4.49,4.94 l -5.36,3.46 c -1.51,2.65 -2.37,5.41 -3.37,8.17 L 66.5,76.69 Z M 42.2,53.51 c 0.84,-1.02 1.16,-2.59 0.32,-3.51 -0.81,-0.28 -2.44,-0.41 -3.31,-0.37 l -1.81,1.7 1.93,2.63 2.88,-0.44 z m 13.58,6.17 c -0.18,-1.34 -0.91,-3.18 -2.06,-3.6 -1.52,-0.19 -2.99,-0.08 -4.6,0 -0.54,0.7 -0.98,1.68 -1.25,2.63 l 4.44,3.26 z m 11.16,5.48 c 1.41,-0.77 1.32,-3.24 0.31,-4.14 L 64.26,59.7 59.63,63.18 63,66.14 c 1.28,-0.24 2.8,-0.36 3.94,-0.98 z"
         id="path20" />
      <path
         class="cls-1"
         d="m 93.55,89.75 -2.76,0.24 h -3.57 c -0.53,-1.41 -1.86,-1.73 -1.96,-3.06 2.24,-0.24 3.9,-0.62 5.5,-1.47 l -0.52,-2.39 -3.03,0.39 c -1.52,0.19 -2.86,0.2 -4.42,-0.09 l -1,-3.47 4.04,-0.15 4.7,-0.56 -0.24,-2.11 -3.7,0.02 c -1.44,0 -2.58,-0.45 -3.95,-1.29 l 2.68,-5.84 c 0.49,1.3 1.31,1.9 2.49,2.57 1.18,0.67 2.37,1.35 3.8,1.38 -0.6,-0.84 -1.35,-1.98 -1.04,-2.94 0.36,-1.1 1.8,-0.65 2.33,-0.03 0.88,1.03 1.61,1.86 1.65,3.31 l 2.9,-0.52 3.67,6.08 -6.93,8.61 c -0.28,0.34 -0.59,0.92 -0.64,1.32 z"
         id="path21" />
      <path
         class="cls-1"
         d="m 110.17,84.2 c -3.09,2.2 -6.78,3.57 -10.47,4.43 l -0.03,-1.42 2.1,-6.09 z"
         id="path22" />
      <path
         class="cls-1"
         d="m 110.8,76.68 0.94,2.37 2.55,-1.11 -0.02,2.98 -12.65,-1.48 -0.54,-6.78 2.06,-1.03 c -1.31,-1.56 -1.53,-4.09 -0.08,-5.57 0.73,-0.75 2.09,-0.21 2.65,0.32 0.8,0.75 0.83,1.65 0.84,3.16 1.21,-0.73 2.25,-1.94 3.11,-3.3 l 1.99,3.06 c -1.26,1.66 -2.8,2.7 -4.8,3.86 l 0.98,2.2 5.46,-2.57 0.49,1.98 -2.99,1.91 z"
         id="path23" />
      <path
         class="cls-2"
         d="m 75.3,54.59 c -1.29,0.87 -2.83,0.94 -4.27,0.69 -2.95,-0.51 -5.63,-1.12 -8.55,-1.96 -0.59,-2.64 -0.98,-4.91 -1.33,-7.74 3.88,1.98 7.34,3.96 10.75,6.28 z"
         id="path24" />
      <path
         class="cls-2"
         d="m 57.31,51.26 c -3.64,-1.54 -7.77,-4.47 -9.26,-8.63 h 3.21 c 0,0 4.64,1.2 4.64,1.2 l 1.42,7.43 z"
         id="path25" />
      <path
         class="cls-4"
         d="M 66.94,65.16 C 65.8,65.78 64.28,65.91 63,66.14 l -3.37,-2.96 4.63,-3.48 2.99,1.32 c 1.01,0.91 1.1,3.38 -0.31,4.14 z"
         id="path26" />
      <path
         class="cls-4"
         d="m 55.78,59.68 -3.47,2.29 -4.44,-3.26 c 0.28,-0.96 0.71,-1.94 1.25,-2.63 1.61,-0.07 3.08,-0.18 4.6,0 1.14,0.42 1.87,2.26 2.06,3.6 z"
         id="path27" />
      <path
         class="cls-4"
         d="m 42.2,53.51 -2.88,0.44 -1.93,-2.63 1.81,-1.7 c 0.87,-0.04 2.49,0.09 3.31,0.37 0.84,0.92 0.52,2.49 -0.32,3.51 z"
         id="path28" />
      <path
         class="cls-4"
         d="m 29.92,29.15 -1.89,2.53 c -0.28,0.36 -0.71,1.22 -0.84,1.66 l -2.07,0.68 -3.55,1.47 C 16.72,37.5 13.45,38.4 8.07,38.34 L 1.27,38.27 C -0.55,38.25 0.05,34.91 0.19,31.5 l 0.29,-7.19 0.2,-4.73 7.84,3.37 7.89,3.43 c 3.39,1.48 6.76,2.36 10.51,2.58 l 2.99,0.18 z m -5.25,2.98 -3.56,-0.76 c -4.1,-0.88 -8.1,-1.91 -12.13,-3.06 -0.07,0.75 -0.25,1.8 -0.26,2.47 l -0.04,5.24 c 5.63,-1.25 10.84,-2.46 15.99,-3.89 z"
         id="path29" />
      <path
         class="cls-2"
         d="m 24.67,32.13 c -5.15,1.43 -10.36,2.64 -15.99,3.89 l 0.04,-5.24 c 0,-0.67 0.19,-1.72 0.26,-2.47 4.02,1.15 8.03,2.18 12.13,3.06 z"
         id="path30" />
    </g>
  </g>
</svg>
